<svg xmlns="http://www.w3.org/2000/svg" width="1200" height="800" viewBox="0 0 1200 800" role="img" aria-labelledby="title desc">
<title id="title">SPY over M2 money supply chart</title>
<desc id="desc">Nominal S and P 500, US M2 money supply, and S and P 500 divided by M2 indexed to January 2000 equals 100.</desc>
<rect width="1200" height="800" fill="#ffffff"/>
<style>text{font-family:"JetBrains Mono","IBM Plex Mono",Menlo,Consolas,monospace}</style>
<text x="70" y="58" font-size="40" fill="#111111" font-weight="800" text-anchor="start" >SPY / M2</text>
<text x="70" y="92" font-size="22" fill="#111111" font-weight="800" text-anchor="start" >PRICE AFTER LIQUIDITY</text>
<text x="70" y="124" font-size="16" fill="#5f656b" font-weight="500" text-anchor="start" >Indexed to Jan 2000 = 100. Adjusted line = S&amp;P 500 price index / US M2 money stock.</text>
<rect x="92" y="152" width="903" height="492" fill="#fbfbfb" stroke="#111111" stroke-width="2"/>
<rect x="787.94" y="152" width="69.02" height="492" fill="#eeeeee" opacity="0.72"/>
<text x="822.4522292993631" y="176" font-size="14" fill="#5f656b" font-weight="600" text-anchor="middle" >2020 M2 shock</text>
<line x1="92.00" y1="644.00" x2="995.00" y2="644.00" stroke="#dddddd" stroke-width="1" />
<text x="78" y="649.0" font-size="14" fill="#5f656b" font-weight="500" text-anchor="end" >0</text>
<line x1="92.00" y1="599.27" x2="995.00" y2="599.27" stroke="#dddddd" stroke-width="1" />
<text x="78" y="604.2727272727273" font-size="14" fill="#5f656b" font-weight="500" text-anchor="end" >50</text>
<line x1="92.00" y1="554.55" x2="995.00" y2="554.55" stroke="#dddddd" stroke-width="1" />
<text x="78" y="559.5454545454545" font-size="14" fill="#5f656b" font-weight="500" text-anchor="end" >100</text>
<line x1="92.00" y1="509.82" x2="995.00" y2="509.82" stroke="#dddddd" stroke-width="1" />
<text x="78" y="514.8181818181818" font-size="14" fill="#5f656b" font-weight="500" text-anchor="end" >150</text>
<line x1="92.00" y1="465.09" x2="995.00" y2="465.09" stroke="#dddddd" stroke-width="1" />
<text x="78" y="470.09090909090907" font-size="14" fill="#5f656b" font-weight="500" text-anchor="end" >200</text>
<line x1="92.00" y1="420.36" x2="995.00" y2="420.36" stroke="#dddddd" stroke-width="1" />
<text x="78" y="425.3636363636364" font-size="14" fill="#5f656b" font-weight="500" text-anchor="end" >250</text>
<line x1="92.00" y1="375.64" x2="995.00" y2="375.64" stroke="#dddddd" stroke-width="1" />
<text x="78" y="380.6363636363636" font-size="14" fill="#5f656b" font-weight="500" text-anchor="end" >300</text>
<line x1="92.00" y1="330.91" x2="995.00" y2="330.91" stroke="#dddddd" stroke-width="1" />
<text x="78" y="335.9090909090909" font-size="14" fill="#5f656b" font-weight="500" text-anchor="end" >350</text>
<line x1="92.00" y1="286.18" x2="995.00" y2="286.18" stroke="#dddddd" stroke-width="1" />
<text x="78" y="291.1818181818182" font-size="14" fill="#5f656b" font-weight="500" text-anchor="end" >400</text>
<line x1="92.00" y1="241.45" x2="995.00" y2="241.45" stroke="#dddddd" stroke-width="1" />
<text x="78" y="246.45454545454544" font-size="14" fill="#5f656b" font-weight="500" text-anchor="end" >450</text>
<line x1="92.00" y1="196.73" x2="995.00" y2="196.73" stroke="#dddddd" stroke-width="1" />
<text x="78" y="201.72727272727272" font-size="14" fill="#5f656b" font-weight="500" text-anchor="end" >500</text>
<line x1="92.00" y1="152.00" x2="995.00" y2="152.00" stroke="#dddddd" stroke-width="1" />
<text x="78" y="157.0" font-size="14" fill="#5f656b" font-weight="500" text-anchor="end" >550</text>
<line x1="92.00" y1="152.00" x2="92.00" y2="644.00" stroke="#eeeeee" stroke-width="1" />
<text x="92.0" y="676" font-size="14" fill="#5f656b" font-weight="500" text-anchor="middle" >2000</text>
<line x1="230.04" y1="152.00" x2="230.04" y2="644.00" stroke="#eeeeee" stroke-width="1" />
<text x="230.03821656050957" y="676" font-size="14" fill="#5f656b" font-weight="500" text-anchor="middle" >2004</text>
<line x1="368.08" y1="152.00" x2="368.08" y2="644.00" stroke="#eeeeee" stroke-width="1" />
<text x="368.07643312101914" y="676" font-size="14" fill="#5f656b" font-weight="500" text-anchor="middle" >2008</text>
<line x1="506.11" y1="152.00" x2="506.11" y2="644.00" stroke="#eeeeee" stroke-width="1" />
<text x="506.11464968152865" y="676" font-size="14" fill="#5f656b" font-weight="500" text-anchor="middle" >2012</text>
<line x1="644.15" y1="152.00" x2="644.15" y2="644.00" stroke="#eeeeee" stroke-width="1" />
<text x="644.1528662420383" y="676" font-size="14" fill="#5f656b" font-weight="500" text-anchor="middle" >2016</text>
<line x1="782.19" y1="152.00" x2="782.19" y2="644.00" stroke="#eeeeee" stroke-width="1" />
<text x="782.1910828025477" y="676" font-size="14" fill="#5f656b" font-weight="500" text-anchor="middle" >2020</text>
<line x1="920.23" y1="152.00" x2="920.23" y2="644.00" stroke="#eeeeee" stroke-width="1" />
<text x="920.2292993630573" y="676" font-size="14" fill="#5f656b" font-weight="500" text-anchor="middle" >2024</text>
<line x1="989.25" y1="152.00" x2="989.25" y2="644.00" stroke="#eeeeee" stroke-width="1" />
<text x="989.2484076433121" y="676" font-size="14" fill="#5f656b" font-weight="500" text-anchor="middle" >2026</text>
<line x1="92.00" y1="152.00" x2="92.00" y2="644.00" stroke="#111111" stroke-width="2" />
<line x1="92.00" y1="644.00" x2="995.00" y2="644.00" stroke="#111111" stroke-width="2" />
<text x="92" y="136" font-size="14" fill="#5f656b" font-weight="600" text-anchor="start" >Index</text>
<path d="M 92.00 554.55 L 94.88 554.29 L 97.75 553.70 L 100.63 552.63 L 103.50 552.86 L 106.38 552.51 L 109.25 552.17 L 112.13 551.63 L 115.01 550.95 L 117.88 550.64 L 120.76 550.42 L 123.63 549.56 L 126.51 548.59 L 129.39 547.85 L 132.26 546.74 L 135.14 545.51 L 138.01 545.55 L 140.89 544.72 L 143.76 544.15 L 146.64 543.50 L 149.52 541.37 L 152.39 541.59 L 155.27 540.75 L 158.14 539.73 L 161.02 539.34 L 163.89 538.78 L 166.77 538.55 L 169.65 538.55 L 172.52 538.05 L 175.40 537.57 L 178.27 536.75 L 181.15 535.94 L 184.03 535.48 L 186.90 534.62 L 189.78 533.65 L 192.65 533.24 L 195.53 532.61 L 198.40 531.92 L 201.28 531.53 L 204.16 530.82 L 207.03 529.68 L 209.91 528.97 L 212.78 528.07 L 215.66 526.96 L 218.54 527.48 L 221.41 527.67 L 224.29 527.56 L 227.16 527.60 L 230.04 527.44 L 232.91 526.68 L 235.79 525.98 L 238.67 525.20 L 241.54 523.73 L 244.42 523.68 L 247.29 523.43 L 250.17 522.92 L 253.04 522.26 L 255.92 521.73 L 258.80 521.22 L 261.67 520.87 L 264.55 520.75 L 267.42 520.60 L 270.30 520.42 L 273.18 520.16 L 276.05 519.83 L 278.93 519.20 L 281.80 518.59 L 284.68 517.97 L 287.55 517.32 L 290.43 516.67 L 293.31 516.35 L 296.18 515.83 L 299.06 515.02 L 301.93 514.55 L 304.81 514.27 L 307.68 513.55 L 310.56 513.42 L 313.44 512.69 L 316.31 511.88 L 319.19 511.28 L 322.06 510.76 L 324.94 509.81 L 327.82 509.13 L 330.69 508.31 L 333.57 507.58 L 336.44 507.27 L 339.32 506.62 L 342.19 505.23 L 345.07 504.97 L 347.95 504.33 L 350.82 503.74 L 353.70 502.28 L 356.57 501.93 L 359.45 501.64 L 362.32 501.15 L 365.20 500.57 L 368.08 499.93 L 370.95 498.27 L 373.83 497.00 L 376.70 496.19 L 379.58 495.95 L 382.46 495.59 L 385.33 494.68 L 388.21 494.40 L 391.08 493.13 L 393.96 491.16 L 396.83 490.16 L 399.71 486.76 L 402.59 485.14 L 405.46 484.56 L 408.34 483.27 L 411.21 483.18 L 414.09 482.07 L 416.96 481.88 L 419.84 481.80 L 422.72 481.81 L 425.59 481.83 L 428.47 481.33 L 431.34 480.77 L 434.22 480.86 L 437.10 481.52 L 439.97 480.57 L 442.85 480.65 L 445.72 480.05 L 448.60 479.01 L 451.47 478.64 L 454.35 478.42 L 457.23 477.50 L 460.10 476.91 L 462.98 475.95 L 465.85 475.56 L 468.73 474.90 L 471.61 474.41 L 474.48 473.18 L 477.36 472.06 L 480.23 470.84 L 483.11 469.45 L 485.98 468.03 L 488.86 464.92 L 491.74 461.34 L 494.61 460.95 L 497.49 460.31 L 500.36 459.32 L 503.24 458.41 L 506.11 457.00 L 508.99 456.00 L 511.87 455.15 L 514.74 454.12 L 517.62 453.28 L 520.49 451.94 L 523.37 450.92 L 526.25 449.56 L 529.12 448.02 L 532.00 446.75 L 534.87 445.41 L 537.75 443.07 L 540.62 442.61 L 543.50 442.24 L 546.38 441.16 L 549.25 440.63 L 552.13 439.97 L 555.00 438.87 L 557.88 438.11 L 560.75 437.00 L 563.63 435.83 L 566.51 433.45 L 569.38 433.27 L 572.26 432.03 L 575.13 430.68 L 578.01 429.41 L 580.89 428.73 L 583.76 427.86 L 586.64 426.62 L 589.51 425.56 L 592.39 424.50 L 595.26 424.04 L 598.14 423.24 L 601.02 421.82 L 603.89 421.03 L 606.77 419.43 L 609.64 417.75 L 612.52 415.50 L 615.39 415.54 L 618.27 414.89 L 621.15 414.35 L 624.02 413.58 L 626.90 412.74 L 629.77 411.87 L 632.65 410.69 L 635.53 409.70 L 638.40 407.94 L 641.28 406.59 L 644.15 404.08 L 647.03 402.45 L 649.90 401.34 L 652.78 399.78 L 655.66 398.65 L 658.53 397.68 L 661.41 396.54 L 664.28 395.05 L 667.16 393.80 L 670.04 392.50 L 672.91 390.86 L 675.79 390.35 L 678.66 388.80 L 681.54 387.29 L 684.41 385.97 L 687.29 384.86 L 690.17 383.95 L 693.04 383.73 L 695.92 382.53 L 698.79 381.48 L 701.67 380.58 L 704.54 379.52 L 707.42 378.69 L 710.30 377.96 L 713.17 377.60 L 716.05 376.66 L 718.92 375.45 L 721.80 375.00 L 724.68 373.92 L 727.55 373.06 L 730.43 372.34 L 733.30 371.41 L 736.18 370.99 L 739.05 370.77 L 741.93 370.27 L 744.81 368.28 L 747.68 366.88 L 750.56 365.99 L 753.43 365.01 L 756.31 364.29 L 759.18 362.19 L 762.06 360.30 L 764.94 358.69 L 767.81 357.02 L 770.69 355.62 L 773.56 353.00 L 776.44 350.85 L 779.32 349.87 L 782.19 348.34 L 785.07 347.07 L 787.94 336.73 L 790.82 316.94 L 793.69 300.32 L 796.57 295.50 L 799.45 292.60 L 802.32 291.15 L 805.20 287.48 L 808.07 284.51 L 810.95 279.92 L 813.82 277.65 L 816.70 272.60 L 819.58 267.56 L 822.45 263.13 L 825.33 257.34 L 828.20 251.90 L 831.08 251.56 L 833.96 248.56 L 836.83 244.59 L 839.71 241.90 L 842.58 238.46 L 845.46 235.10 L 848.33 231.98 L 851.21 229.08 L 854.09 227.64 L 856.96 226.46 L 859.84 226.79 L 862.71 227.75 L 865.59 229.05 L 868.46 229.02 L 871.34 229.30 L 874.22 231.25 L 877.09 232.69 L 879.97 233.74 L 882.84 235.96 L 885.72 236.18 L 888.60 236.88 L 891.47 242.55 L 894.35 246.11 L 897.22 244.80 L 900.10 245.38 L 902.97 245.54 L 905.85 245.81 L 908.73 246.37 L 911.60 246.65 L 914.48 246.39 L 917.35 245.79 L 920.23 244.53 L 923.11 242.93 L 925.98 242.04 L 928.86 242.31 L 931.73 241.14 L 934.61 240.22 L 937.48 239.71 L 940.36 237.96 L 943.24 236.37 L 946.11 235.17 L 948.99 232.87 L 951.86 232.22 L 954.74 231.03 L 957.61 229.78 L 960.49 228.24 L 963.37 226.67 L 966.24 225.55 L 969.12 223.54 L 971.99 221.99 L 974.87 220.70 L 977.75 219.11 L 980.62 217.67 L 983.50 217.05 L 986.37 215.59 L 989.25 214.14 L 992.12 210.35 L 995.00 209.22" fill="none" stroke="#c56b00" stroke-width="4" stroke-linecap="round" stroke-linejoin="round" opacity="0.88"/>
<path d="M 92.00 554.55 L 94.88 556.85 L 97.75 553.50 L 100.63 552.30 L 103.50 554.99 L 106.38 552.26 L 109.25 551.57 L 112.13 550.79 L 115.01 551.88 L 117.88 556.77 L 120.76 557.53 L 123.63 560.49 L 126.51 560.19 L 129.39 562.07 L 132.26 569.59 L 135.14 569.34 L 138.01 564.29 L 140.89 566.27 L 143.76 568.42 L 146.64 570.05 L 149.52 578.45 L 152.39 576.44 L 155.27 573.11 L 158.14 572.16 L 161.02 572.45 L 163.89 574.93 L 166.77 571.60 L 169.65 574.23 L 172.52 576.28 L 175.40 580.37 L 178.27 587.30 L 181.15 586.74 L 184.03 589.55 L 186.90 590.37 L 189.78 586.90 L 192.65 587.58 L 195.53 587.79 L 198.40 591.48 L 201.28 590.87 L 204.16 588.15 L 207.03 585.27 L 209.91 582.00 L 212.78 581.72 L 215.66 581.91 L 218.54 580.03 L 221.41 578.82 L 224.29 578.12 L 227.16 576.19 L 230.04 572.94 L 232.91 572.26 L 235.79 573.47 L 238.67 572.88 L 241.54 574.80 L 244.42 572.92 L 247.29 574.61 L 250.17 575.67 L 253.04 573.87 L 255.92 573.90 L 258.80 570.65 L 261.67 568.75 L 264.55 569.87 L 267.42 568.72 L 270.30 569.02 L 273.18 570.93 L 276.05 570.06 L 278.93 568.56 L 281.80 567.31 L 284.68 567.18 L 287.55 567.07 L 290.43 569.21 L 293.31 566.36 L 296.18 564.81 L 299.06 563.76 L 301.93 563.89 L 304.81 562.82 L 307.68 562.29 L 310.56 563.05 L 313.44 565.36 L 316.31 564.92 L 319.19 563.23 L 322.06 561.31 L 324.94 558.45 L 327.82 556.86 L 330.69 555.12 L 333.57 554.64 L 336.44 553.34 L 339.32 555.72 L 342.19 552.16 L 345.07 549.18 L 347.95 548.99 L 350.82 548.58 L 353.70 552.72 L 356.57 550.06 L 359.45 547.39 L 362.32 552.17 L 365.20 551.18 L 368.08 557.48 L 370.95 558.98 L 373.83 561.36 L 376.70 558.00 L 379.58 555.95 L 382.46 559.84 L 385.33 565.10 L 388.21 563.59 L 391.08 567.64 L 393.96 583.21 L 396.83 588.59 L 399.71 588.93 L 402.59 589.69 L 405.46 593.47 L 408.34 596.49 L 411.21 590.78 L 414.09 587.37 L 416.96 585.89 L 419.84 585.28 L 422.72 580.64 L 425.59 578.46 L 428.47 577.01 L 431.34 575.72 L 434.22 574.32 L 437.10 573.50 L 439.97 575.66 L 442.85 571.71 L 445.72 568.87 L 448.60 573.40 L 451.47 576.02 L 454.35 576.24 L 457.23 575.77 L 460.10 573.59 L 462.98 570.48 L 465.85 568.77 L 468.73 566.10 L 471.61 563.52 L 474.48 561.10 L 477.36 562.14 L 480.23 560.45 L 483.11 560.02 L 485.98 563.22 L 488.86 560.85 L 491.74 569.62 L 494.61 570.34 L 497.49 568.25 L 500.36 567.04 L 503.24 565.98 L 506.11 562.39 L 508.99 559.13 L 511.87 556.83 L 514.74 557.00 L 517.62 559.84 L 520.49 560.95 L 523.37 558.67 L 526.25 555.93 L 529.12 553.43 L 532.00 553.78 L 534.87 556.50 L 537.75 554.75 L 540.62 551.11 L 543.50 549.10 L 546.38 546.69 L 549.25 545.44 L 552.13 541.10 L 555.00 542.42 L 557.88 539.29 L 560.75 539.20 L 563.63 538.13 L 566.51 536.07 L 569.38 532.08 L 572.26 530.56 L 575.13 529.65 L 578.01 529.98 L 580.89 527.07 L 583.76 527.02 L 586.64 525.42 L 589.51 521.82 L 592.39 520.19 L 595.26 520.92 L 598.14 518.93 L 601.02 522.44 L 603.89 515.70 L 606.77 515.10 L 609.64 516.73 L 612.52 513.34 L 615.39 513.48 L 618.27 512.55 L 621.15 511.48 L 624.02 512.27 L 626.90 512.59 L 629.77 516.00 L 632.65 521.99 L 635.53 516.94 L 638.40 513.44 L 641.28 515.11 L 644.15 523.61 L 647.03 524.50 L 649.90 517.12 L 652.78 513.76 L 655.66 514.39 L 658.53 513.24 L 661.41 509.16 L 664.28 507.77 L 667.16 508.61 L 670.04 509.53 L 672.91 508.15 L 675.79 503.03 L 678.66 501.24 L 681.54 497.80 L 684.41 495.48 L 687.29 495.96 L 690.17 493.69 L 693.04 491.27 L 695.92 490.01 L 698.79 489.87 L 701.67 487.58 L 704.54 483.55 L 707.42 481.25 L 710.30 476.81 L 713.17 468.94 L 716.05 474.25 L 718.92 474.40 L 721.80 477.49 L 724.68 474.48 L 727.55 471.17 L 730.43 468.70 L 733.30 464.67 L 736.18 461.93 L 739.05 469.21 L 741.93 473.12 L 744.81 482.90 L 747.68 480.39 L 750.56 471.13 L 753.43 468.05 L 756.31 461.79 L 759.18 464.87 L 762.06 462.64 L 764.94 456.00 L 767.81 462.18 L 770.69 456.87 L 773.56 457.15 L 776.44 449.17 L 779.32 444.66 L 782.19 438.30 L 785.07 438.35 L 787.94 477.56 L 790.82 470.69 L 793.69 460.80 L 796.57 449.19 L 799.45 442.72 L 802.32 431.17 L 805.20 432.82 L 808.07 429.48 L 810.95 421.30 L 813.82 412.12 L 816.70 405.95 L 819.58 400.32 L 822.45 398.62 L 825.33 384.14 L 828.20 382.47 L 831.08 378.04 L 833.96 370.18 L 836.83 364.50 L 839.71 365.05 L 842.58 364.09 L 845.46 351.13 L 848.33 350.66 L 851.21 357.00 L 854.09 365.65 L 856.96 368.45 L 859.84 368.45 L 862.71 390.47 L 865.59 399.34 L 868.46 398.54 L 871.34 383.05 L 874.22 402.38 L 877.09 410.19 L 879.97 398.18 L 882.84 398.50 L 885.72 395.47 L 888.60 388.00 L 891.47 394.98 L 894.35 385.38 L 897.22 383.83 L 900.10 371.33 L 902.97 361.12 L 905.85 364.30 L 908.73 360.64 L 911.60 376.10 L 914.48 364.14 L 917.35 350.02 L 920.23 342.52 L 923.11 329.50 L 925.98 319.55 L 928.86 323.20 L 931.73 315.49 L 934.61 304.20 L 937.48 296.50 L 940.36 300.25 L 943.24 291.27 L 946.11 280.54 L 948.99 271.90 L 951.86 266.82 L 954.74 268.79 L 957.61 265.08 L 960.49 287.34 L 963.37 307.07 L 966.24 279.37 L 969.12 265.63 L 971.99 248.90 L 974.87 241.84 L 977.75 230.86 L 980.62 221.34 L 983.50 221.01 L 986.37 213.98 L 989.25 209.20 L 992.12 211.42 L 995.00 226.44" fill="none" stroke="#1f5eff" stroke-width="4" stroke-linecap="round" stroke-linejoin="round" opacity="0.92"/>
<path d="M 92.00 554.55 L 94.88 557.10 L 97.75 554.35 L 100.63 554.23 L 103.50 556.64 L 106.38 554.30 L 109.25 553.96 L 112.13 553.73 L 115.01 555.44 L 117.88 560.42 L 120.76 561.34 L 123.63 564.89 L 126.51 565.42 L 129.39 567.77 L 132.26 575.56 L 135.14 576.19 L 138.01 571.57 L 140.89 573.96 L 143.76 576.29 L 146.64 578.18 L 149.52 586.87 L 152.39 584.99 L 155.27 582.59 L 158.14 582.36 L 161.02 582.85 L 163.89 585.28 L 166.77 582.58 L 169.65 584.81 L 172.52 586.82 L 175.40 590.52 L 178.27 596.71 L 181.15 596.60 L 184.03 599.11 L 186.90 600.14 L 189.78 597.72 L 192.65 598.43 L 195.53 598.86 L 198.40 602.08 L 201.28 601.75 L 204.16 599.86 L 207.03 598.05 L 209.91 595.79 L 212.78 595.94 L 215.66 596.54 L 218.54 594.89 L 221.41 593.88 L 224.29 593.39 L 227.16 591.89 L 230.04 589.46 L 232.91 589.30 L 235.79 590.54 L 238.67 590.45 L 241.54 592.53 L 244.42 591.15 L 247.29 592.52 L 250.17 593.52 L 253.04 592.47 L 255.92 592.71 L 258.80 590.56 L 261.67 589.33 L 264.55 590.19 L 267.42 589.43 L 270.30 589.73 L 273.18 591.22 L 276.05 590.74 L 278.93 589.92 L 281.80 589.29 L 284.68 589.47 L 287.55 589.68 L 290.43 591.45 L 293.31 589.59 L 296.18 588.73 L 299.06 588.35 L 301.93 588.64 L 304.81 588.02 L 307.68 587.97 L 310.56 588.55 L 313.44 590.43 L 316.31 590.46 L 319.19 589.56 L 322.06 588.49 L 324.94 586.97 L 327.82 586.20 L 330.69 585.41 L 333.57 585.40 L 336.44 584.69 L 339.32 586.51 L 342.19 584.80 L 345.07 582.99 L 347.95 583.15 L 350.82 583.14 L 353.70 586.39 L 356.57 584.85 L 359.45 583.29 L 362.32 586.50 L 365.20 586.11 L 368.08 590.28 L 370.95 591.81 L 373.83 593.71 L 376.70 591.96 L 379.58 590.80 L 382.46 593.27 L 385.33 596.73 L 388.21 595.92 L 391.08 598.72 L 393.96 608.42 L 396.83 611.78 L 399.71 612.67 L 402.59 613.42 L 405.46 615.65 L 408.34 617.56 L 411.21 614.40 L 414.09 612.72 L 416.96 611.93 L 419.84 611.62 L 422.72 609.06 L 425.59 607.84 L 428.47 607.16 L 431.34 606.58 L 434.22 605.79 L 437.10 605.18 L 439.97 606.59 L 442.85 604.41 L 445.72 603.01 L 448.60 605.72 L 451.47 607.22 L 454.35 607.39 L 457.23 607.35 L 460.10 606.31 L 462.98 604.87 L 465.85 604.05 L 468.73 602.79 L 471.61 601.55 L 474.48 600.59 L 477.36 601.41 L 480.23 600.84 L 483.11 600.96 L 485.98 602.94 L 488.86 602.46 L 491.74 607.58 L 494.61 608.00 L 497.49 607.11 L 500.36 606.72 L 503.24 606.40 L 506.11 604.96 L 508.99 603.62 L 511.87 602.71 L 514.74 603.01 L 517.62 604.52 L 520.49 605.32 L 523.37 604.47 L 526.25 603.48 L 529.12 602.66 L 532.00 603.08 L 534.87 604.58 L 537.75 604.27 L 540.62 602.74 L 543.50 601.93 L 546.38 601.08 L 549.25 600.65 L 552.13 598.89 L 555.00 599.70 L 557.88 598.51 L 560.75 598.71 L 563.63 598.51 L 566.51 598.15 L 569.38 596.49 L 572.26 596.13 L 575.13 596.05 L 578.01 596.47 L 580.89 595.41 L 583.76 595.58 L 586.64 595.20 L 589.51 593.97 L 592.39 593.54 L 595.26 593.94 L 598.14 593.32 L 601.02 595.06 L 603.89 592.53 L 606.77 592.65 L 609.64 593.68 L 612.52 592.85 L 615.39 592.89 L 618.27 592.68 L 621.15 592.38 L 624.02 592.86 L 626.90 593.17 L 629.77 594.67 L 632.65 597.22 L 635.53 595.49 L 638.40 594.52 L 641.28 595.44 L 644.15 599.11 L 647.03 599.75 L 649.90 597.23 L 652.78 596.30 L 655.66 596.74 L 658.53 596.51 L 661.41 595.26 L 664.28 595.05 L 667.16 595.59 L 670.04 596.17 L 672.91 595.99 L 675.79 594.28 L 678.66 593.96 L 681.54 593.05 L 684.41 592.51 L 687.29 592.90 L 690.17 592.30 L 693.04 591.51 L 695.92 591.32 L 698.79 591.48 L 701.67 590.88 L 704.54 589.73 L 707.42 589.13 L 710.30 587.79 L 713.17 585.22 L 716.05 587.20 L 718.92 587.51 L 721.80 588.63 L 724.68 587.85 L 727.55 586.94 L 730.43 586.28 L 733.30 585.15 L 736.18 584.35 L 739.05 586.78 L 741.93 588.16 L 744.81 591.73 L 747.68 591.19 L 750.56 588.38 L 753.43 587.59 L 756.31 585.73 L 759.18 587.14 L 762.06 586.82 L 764.94 585.05 L 767.81 587.33 L 770.69 585.95 L 773.56 586.56 L 776.44 584.55 L 779.32 583.38 L 782.19 581.76 L 785.07 582.05 L 787.94 595.55 L 790.82 596.60 L 793.69 596.32 L 796.57 593.99 L 799.45 592.76 L 802.32 590.04 L 805.20 591.01 L 808.07 590.62 L 810.95 589.28 L 813.82 587.38 L 816.70 586.66 L 819.58 586.09 L 822.45 586.37 L 825.33 583.88 L 828.20 584.33 L 831.08 583.38 L 833.96 582.06 L 836.83 581.40 L 839.71 581.94 L 842.58 582.26 L 845.46 579.93 L 848.33 580.31 L 851.21 582.12 L 854.09 584.20 L 856.96 584.97 L 859.84 584.92 L 862.71 589.52 L 865.59 591.26 L 868.46 591.09 L 871.34 587.71 L 874.22 591.63 L 877.09 593.15 L 879.97 590.40 L 882.84 590.18 L 885.72 589.49 L 888.60 587.75 L 891.47 588.51 L 894.35 585.86 L 897.22 585.70 L 900.10 582.81 L 902.97 580.49 L 905.85 581.17 L 908.73 580.25 L 911.60 583.69 L 914.48 581.04 L 917.35 577.96 L 920.23 576.49 L 923.11 573.86 L 925.98 571.80 L 928.86 572.56 L 931.73 571.06 L 934.61 568.72 L 937.48 567.11 L 940.36 568.27 L 943.24 566.59 L 946.11 564.47 L 948.99 563.04 L 951.86 562.06 L 954.74 562.72 L 957.61 562.17 L 960.49 567.26 L 963.37 571.78 L 966.24 566.05 L 969.12 563.50 L 971.99 560.25 L 974.87 559.01 L 977.75 557.02 L 980.62 555.32 L 983.50 555.38 L 986.37 554.21 L 989.25 553.52 L 992.12 554.77 L 995.00 558.09" fill="none" stroke="#09865f" stroke-width="5" stroke-linecap="round" stroke-linejoin="round"/>
<circle cx="995.00" cy="226.44" r="5" fill="#1f5eff"/>
<line x1="1003.00" y1="226.44" x2="1017.00" y2="248.44" stroke="#1f5eff" stroke-width="2" stroke-dasharray="5 5"/>
<text x="1025" y="253.44087264666808" font-size="15" fill="#1f5eff" font-weight="800" text-anchor="start" >S&amp;P 500 467</text>
<circle cx="995.00" cy="209.22" r="5" fill="#c56b00"/>
<line x1="1003.00" y1="209.22" x2="1017.00" y2="191.22" stroke="#c56b00" stroke-width="2" stroke-dasharray="5 5"/>
<text x="1025" y="196.2228515335894" font-size="15" fill="#c56b00" font-weight="800" text-anchor="start" >M2 486</text>
<circle cx="995.00" cy="558.09" r="5" fill="#09865f"/>
<line x1="1003.00" y1="558.09" x2="1017.00" y2="562.09" stroke="#09865f" stroke-width="2" stroke-dasharray="5 5"/>
<text x="1025" y="567.0880286152512" font-size="15" fill="#09865f" font-weight="800" text-anchor="start" >S&amp;P 500 / M2 96</text>
<rect x="72" y="710" width="18" height="4" fill="#1f5eff"/>
<text x="98" y="717" font-size="14" fill="#111111" font-weight="600" text-anchor="start" >S&amp;P 500 price proxy for SPY</text>
<rect x="382" y="710" width="18" height="4" fill="#c56b00"/>
<text x="408" y="717" font-size="14" fill="#111111" font-weight="600" text-anchor="start" >US M2 money stock</text>
<rect x="692" y="710" width="18" height="4" fill="#09865f"/>
<text x="718" y="717" font-size="14" fill="#111111" font-weight="600" text-anchor="start" >M2-adjusted price</text>
<text x="70" y="770" font-size="13" fill="#5f656b" font-weight="500" text-anchor="start" >Data: FRED M2SL; monthly S&amp;P 500 dataset. Latest common month: Mar 2026.</text>
<text x="1130" y="770" font-size="13" fill="#5f656b" font-weight="500" text-anchor="end" >Not investment advice</text>
</svg>
